<svg width="20" height="21" viewBox="0 0 20 21" fill="none" xmlns="http://www.w3.org/2000/svg">
<path d="M0.666597 19.2806H1.1666C1.21081 19.2806 1.2532 19.2618 1.28446 19.2283C1.31571 19.1948 1.33327 19.1494 1.33327 19.102V11.4909C1.33289 11.4625 1.33885 11.4344 1.35064 11.4089C1.36243 11.3835 1.37972 11.3614 1.40107 11.3445C1.42243 11.3277 1.44722 11.3165 1.4734 11.312C1.49959 11.3075 1.5264 11.3097 1.55161 11.3185C1.93396 11.4473 2.33101 11.5191 2.73162 11.5319C2.78079 11.5319 2.82746 11.5342 2.87329 11.5342C3.64383 11.5361 4.40198 11.3265 5.0754 10.9252C5.12638 10.8949 5.18374 10.8789 5.24207 10.8789C5.3004 10.8789 5.35776 10.8949 5.40874 10.9252C6.08201 11.3265 6.84002 11.5361 7.61043 11.5342C8.37652 11.5353 9.12975 11.3232 9.79629 10.9185C9.84769 10.8874 9.90576 10.871 9.96483 10.871C10.0239 10.871 10.082 10.8874 10.1334 10.9185C10.8099 11.3247 11.5729 11.5369 12.3484 11.5346C13.1196 11.5352 13.8776 11.3197 14.5472 10.9096C14.599 10.878 14.6576 10.8614 14.7172 10.8614C14.7768 10.8614 14.8354 10.878 14.8872 10.9096C15.5567 11.3197 16.3147 11.5352 17.086 11.5346C17.1314 11.5346 17.1772 11.5346 17.2264 11.5324H17.2289C17.6436 11.519 18.0543 11.4425 18.4489 11.3052C18.4739 11.2965 18.5004 11.2943 18.5263 11.2987C18.5523 11.3031 18.5769 11.3141 18.5981 11.3306C18.6194 11.3471 18.6366 11.3688 18.6486 11.3939C18.6605 11.4189 18.6668 11.4467 18.6668 11.4748V19.102C18.6668 19.1494 18.6844 19.1948 18.7156 19.2283C18.7469 19.2618 18.7893 19.2806 18.8335 19.2806H19.3126C19.6727 19.2806 19.9835 19.577 19.9993 19.9627C20.0034 20.0591 19.9892 20.1554 19.9575 20.2458C19.9259 20.3361 19.8775 20.4186 19.8153 20.4884C19.7531 20.5582 19.6783 20.6137 19.5955 20.6516C19.5127 20.6896 19.4235 20.7091 19.3335 20.7092H0.687431C0.327427 20.7092 0.0165901 20.4127 0.00075531 20.027C-0.00329781 19.9306 0.0109215 19.8344 0.0425529 19.744C0.0741863 19.6537 0.122574 19.5711 0.184801 19.5014C0.247026 19.4316 0.3218 19.3761 0.404606 19.3381C0.487413 19.3002 0.576536 19.2806 0.666597 19.2806ZM11.3334 16.2449C11.3334 16.2922 11.3509 16.3377 11.3822 16.3712C11.4135 16.4046 11.4559 16.4235 11.5001 16.4235H15.1668C15.211 16.4235 15.2534 16.4046 15.2846 16.3712C15.3159 16.3377 15.3334 16.2922 15.3334 16.2449V13.3877C15.3334 13.2457 15.2808 13.1094 15.187 13.0089C15.0932 12.9085 14.966 12.852 14.8334 12.852H11.8334C11.7008 12.852 11.5736 12.9085 11.4798 13.0089C11.3861 13.1094 11.3334 13.2457 11.3334 13.3877V16.2449ZM4.83331 19.2806H7.83335C7.87755 19.2806 7.91994 19.2618 7.9512 19.2283C7.98246 19.1948 8.00002 19.1494 8.00002 19.102V13.3877C8.00002 13.2457 7.94734 13.1094 7.85357 13.0089C7.7598 12.9085 7.63262 12.852 7.50001 12.852H5.16665C5.03404 12.852 4.90686 12.9085 4.81309 13.0089C4.71932 13.1094 4.66664 13.2457 4.66664 13.3877V19.102C4.66664 19.1494 4.6842 19.1948 4.71546 19.2283C4.74672 19.2618 4.78911 19.2806 4.83331 19.2806ZM0.142841 6.88238L1.9312 2.48551C2.39953 1.40649 3.46913 0.709167 4.65623 0.709167H15.3459C16.533 0.709167 17.6026 1.40649 18.071 2.48551L19.8593 6.88238C20.2343 7.7489 19.7389 8.63863 19.7385 8.63908L19.7268 8.65917C19.7064 8.69399 19.6702 8.74845 19.6481 8.78327C19.646 8.78595 19.6443 8.78908 19.6422 8.7922L19.4339 9.06229C19.4261 9.07249 19.4178 9.08218 19.4089 9.09131L19.2006 9.30694L19.1831 9.32301C19.0607 9.43536 18.9298 9.53661 18.7918 9.62569V9.62792C18.3383 9.92223 17.8217 10.0863 17.2918 10.1043H17.1889C16.3871 10.1059 15.6145 9.78187 15.0268 9.19756L15.013 9.18372C14.9516 9.12175 14.8705 9.08724 14.7861 9.08724C14.7018 9.08724 14.6206 9.12175 14.5593 9.18372L14.5455 9.19756C13.9515 9.78088 13.175 10.1045 12.3692 10.1045C11.5635 10.1045 10.787 9.78088 10.193 9.19756C10.1313 9.13644 10.0505 9.10249 9.9665 9.10249C9.88253 9.10249 9.80165 9.13644 9.74004 9.19756C9.14779 9.77904 8.37413 10.1024 7.57083 10.1043C6.76752 10.1062 5.99254 9.7865 5.3979 9.20783C5.3372 9.14759 5.25751 9.11412 5.17478 9.11412C5.09204 9.11412 5.01235 9.14759 4.95165 9.20783C4.35638 9.79003 3.57801 10.1102 2.77204 10.1043H2.66829C2.15168 10.0836 1.64902 9.91895 1.20994 9.62658C1.17035 9.60113 1.13244 9.57435 1.0941 9.54756C0.79796 9.33366 0.540226 9.06433 0.33326 8.75247L0.260759 8.63506C0.253538 8.62316 0.24687 8.61066 0.240759 8.59756C0.171591 8.44667 -0.199247 7.67077 0.142841 6.88238Z" fill="white"/>
</svg>
