<svg width="20" height="22" viewBox="0 0 20 22" fill="none" xmlns="http://www.w3.org/2000/svg">
<path d="M19.3117 6.64979C19.1727 6.50977 19.0073 6.39873 18.825 6.32309C18.6428 6.24746 18.4473 6.20873 18.25 6.20917H15.25V5.45917C15.25 4.06678 14.6969 2.73142 13.7123 1.74686C12.7277 0.762291 11.3924 0.209167 10 0.209167C8.60761 0.209167 7.27226 0.762291 6.28769 1.74686C5.30312 2.73142 4.75 4.06678 4.75 5.45917V6.20917H1.75C1.35218 6.20917 0.970644 6.3672 0.68934 6.64851C0.408035 6.92981 0.25 7.31134 0.25 7.70917V17.8342C0.25 19.6623 1.79688 21.2092 3.625 21.2092H16.375C17.2593 21.2094 18.1086 20.8637 18.7413 20.2459C19.0596 19.9421 19.3132 19.577 19.4865 19.1726C19.6599 18.7682 19.7495 18.3328 19.75 17.8928V7.70917C19.7506 7.51238 19.7122 7.31743 19.637 7.13558C19.5617 6.95374 19.4512 6.78863 19.3117 6.64979ZM6.25 5.45917C6.25 4.46461 6.64509 3.51078 7.34835 2.80752C8.05161 2.10426 9.00544 1.70917 10 1.70917C10.9946 1.70917 11.9484 2.10426 12.6517 2.80752C13.3549 3.51078 13.75 4.46461 13.75 5.45917V6.20917H6.25V5.45917ZM15.25 9.95917C15.25 11.3516 14.6969 12.6869 13.7123 13.6715C12.7277 14.656 11.3924 15.2092 10 15.2092C8.60761 15.2092 7.27226 14.656 6.28769 13.6715C5.30312 12.6869 4.75 11.3516 4.75 9.95917V9.20917C4.75 9.01025 4.82902 8.81949 4.96967 8.67884C5.11032 8.53819 5.30109 8.45917 5.5 8.45917C5.69891 8.45917 5.88968 8.53819 6.03033 8.67884C6.17098 8.81949 6.25 9.01025 6.25 9.20917V9.95917C6.25 10.9537 6.64509 11.9076 7.34835 12.6108C8.05161 13.3141 9.00544 13.7092 10 13.7092C10.9946 13.7092 11.9484 13.3141 12.6517 12.6108C13.3549 11.9076 13.75 10.9537 13.75 9.95917V9.20917C13.75 9.01025 13.829 8.81949 13.9697 8.67884C14.1103 8.53819 14.3011 8.45917 14.5 8.45917C14.6989 8.45917 14.8897 8.53819 15.0303 8.67884C15.171 8.81949 15.25 9.01025 15.25 9.20917V9.95917Z" fill="#1A1F16"/>
</svg>
